<svg xmlns="http://www.w3.org/2000/svg" viewBox="0 0 96 96" role="img" aria-labelledby="title">
  <title id="title">Símbolo de Arcillas Argentinas: vasija formada por estratos de tierra</title>
  <defs><clipPath id="v"><path d="M31 22h34c0 7 5 11 9 18 8 14 6 30-5 43-6 7-36 7-42 0-11-13-13-29-5-43 4-7 9-11 9-18Z"/></clipPath></defs>
  <g clip-path="url(#v)"><rect x="14" y="18" width="68" height="76" fill="#f5f0e7"/><path d="M14 39c17-5 31 5 48 2 8-1 14-4 20-6v22H14Z" fill="#c89a45"/><path d="M14 55c19-7 34 7 51 3 6-1 12-4 17-6v21H14Z" fill="#ad5f3f"/><path d="M14 72c20-5 37 6 51 3 7-1 12-4 17-6v25H14Z" fill="#123f4b"/></g>
  <path d="M31 22h34c0 7 5 11 9 18 8 14 6 30-5 43-6 7-36 7-42 0-11-13-13-29-5-43 4-7 9-11 9-18Z" fill="none" stroke="#0b2d36" stroke-width="3" stroke-linejoin="round"/><path d="M29 12h38v10H29z" fill="#ad5f3f" stroke="#0b2d36" stroke-width="3" stroke-linejoin="round"/>
</svg>
